<?xml version="1.0" encoding="UTF-8" standalone="no"?>
<!DOCTYPE svg PUBLIC "-//W3C//DTD SVG 1.1//EN" "http://www.w3.org/Graphics/SVG/1.1/DTD/svg11.dtd">
<svg width="100%" height="100%" viewBox="0 0 100 56" version="1.1" xmlns="http://www.w3.org/2000/svg" xmlns:xlink="http://www.w3.org/1999/xlink" xml:space="preserve" xmlns:serif="http://www.serif.com/" style="fill-rule:evenodd;clip-rule:evenodd;stroke-linejoin:round;stroke-miterlimit:2;">
    <g transform="matrix(1,0,0,1,-1531.99,-394.038)">
        <g transform="matrix(0.456943,0,0,0.456943,1643.86,277.06)">
            <g transform="matrix(0.159008,0,0,0.158796,-256.33,196.293)">
                <path d="M1224,987C1269,936 1310,881 1344,823C1430,672 1463,564 1443,502C1436,478 1418,459 1396,449C1349,427 1295,446 1236,505C1189,478 997,376 761,376C524,376 332,478 285,505C226,446 172,427 125,449C103,459 86,478 78,502C58,564 91,672 177,823C211,881 252,936 297,987L304,995C437,1091 597,1144 761,1144C924,1144 1084,1091 1217,995L1224,987ZM204,807C104,630 97,548 109,511C113,496 124,484 138,478C173,462 217,481 268,533L293,933C261,893 231,851 204,807ZM761,1112C606,1111 455,1062 328,973L300,534C341,510 532,408 761,408C989,408 1180,510 1221,534L1193,973C1066,1062 915,1111 761,1112ZM1228,933L1254,533C1304,481 1348,462 1383,478C1397,484 1408,496 1412,511C1424,548 1417,630 1317,807C1290,851 1261,893 1228,933Z" style="fill-rule:nonzero;"/>
            </g>
            <g transform="matrix(0.159008,0,0,0.158796,-256.33,196.293)">
                <path d="M1037,606C856,556 665,556 484,606C476,608 471,617 473,625C475,634 484,639 493,636C668,589 853,589 1028,636C1037,639 1046,634 1048,625C1050,617 1045,608 1037,606" style="fill-rule:nonzero;"/>
            </g>
            <g transform="matrix(0.159008,0,0,0.158796,-256.33,196.293)">
                <path d="M985,776C993,776 1001,769 1001,760C1001,752 993,744 985,744L537,744C528,744 521,752 521,760C521,769 528,776 537,776L985,776Z" style="fill-rule:nonzero;"/>
            </g>
            <g transform="matrix(0.159008,0,0,0.158796,-256.33,196.293)">
                <path d="M1028,884C853,932 668,932 493,884C484,882 475,887 473,896C471,904 476,913 484,915C574,940 667,952 761,952C854,952 947,940 1037,915C1045,913 1050,904 1048,896C1046,887 1037,882 1028,884" style="fill-rule:nonzero;"/>
            </g>
        </g>
    </g>
</svg>
