<?xml version="1.0" encoding="UTF-8" standalone="no"?>
<!DOCTYPE svg PUBLIC "-//W3C//DTD SVG 1.1//EN" "http://www.w3.org/Graphics/SVG/1.1/DTD/svg11.dtd">
<svg width="100%" height="100%" viewBox="0 0 103 127" version="1.1" xmlns="http://www.w3.org/2000/svg" xmlns:xlink="http://www.w3.org/1999/xlink" xml:space="preserve" xmlns:serif="http://www.serif.com/" style="fill-rule:evenodd;clip-rule:evenodd;stroke-linejoin:round;stroke-miterlimit:2;">
    <g transform="matrix(1,0,0,1,-1685.39,-358.662)">
        <g transform="matrix(0.290765,0,0,0.290765,1662.29,334.93)">
            <path d="M427.96,445.31L427.96,445.65C417.06,455.54 405.29,464.51 392.8,472.42C383.5,467.49 371.98,470.58 366.4,479.51L359.8,490.07C328.07,504.17 292.95,512 256,512C189.81,512 129.49,486.87 84.04,445.65L84.04,445.31C84.04,412.08 105.84,382.81 137.67,373.28L169.251,363.838C183.56,359.56 198.191,356.442 213.001,354.514L223.02,353.21L288.98,353.21L298.999,354.514C313.809,356.442 328.439,359.56 342.749,363.838L374.331,373.28C406.16,382.81 427.96,412.08 427.96,445.31Z" style="fill:white;fill-rule:nonzero;stroke:rgb(26,26,26);stroke-width:9.2px;"/>
            <path d="M295.804,295.232L295.804,351.846C295.804,373.814 277.994,391.634 256.016,391.634C234.048,391.634 216.228,373.814 216.228,351.846L216.228,295.232L295.804,295.232Z" style="fill:white;fill-rule:nonzero;stroke:rgb(26,26,26);stroke-width:9.2px;"/>
            <path d="M295.804,295.232L295.804,351.846C295.804,373.814 277.994,391.634 256.016,391.634L256.016,295.232L295.804,295.232Z" style="fill:white;fill-rule:nonzero;stroke:rgb(26,26,26);stroke-width:9.2px;"/>
            <path d="M138.085,200.581C123.58,200.581 111.821,212.34 111.821,226.845C111.821,253.265 133.238,274.682 159.658,274.682L153.366,200.524L138.085,200.581Z" style="fill:white;fill-rule:nonzero;stroke:rgb(26,26,26);stroke-width:9.2px;"/>
            <path d="M373.951,200.581C388.456,200.581 400.215,212.34 400.215,226.845C400.215,253.265 378.797,274.682 352.378,274.682L358.681,200.524L373.951,200.581Z" style="fill:white;fill-rule:nonzero;stroke:rgb(26,26,26);stroke-width:9.2px;"/>
            <path d="M358.68,205.52L358.68,244.22C358.68,251.75 357.87,259.08 356.32,266.15C346.29,312.3 305.21,346.87 256.04,346.88L256.01,346.88C206.86,346.88 165.77,312.3 155.72,266.15C154.18,259.08 153.37,251.75 153.37,244.22L153.37,205.52C153.37,199.94 153.8,194.46 154.69,189.14C154.72,188.89 154.76,188.65 154.8,188.41C154.84,188.19 154.87,187.97 154.92,187.75C161.84,148.06 191.55,116.22 230.06,106.16C238.34,104 247.06,102.86 256.01,102.86L256.04,102.86C265.01,102.86 273.71,104 282.01,106.18C320.51,116.23 350.21,148.07 357.12,187.77C357.16,187.98 357.19,188.2 357.23,188.41C357.28,188.65 357.31,188.9 357.35,189.16C358.23,194.48 358.68,199.94 358.68,205.52Z" style="fill:white;fill-rule:nonzero;stroke:rgb(26,26,26);stroke-width:9.2px;"/>
            <path d="M317.26,324.28C317.26,325.08 317.25,325.86 317.21,326.65C317.21,326.8 317.21,326.96 317.2,327.11C314.85,385.66 197.15,385.66 194.8,327.11C194.79,326.95 194.79,326.78 194.79,326.62C194.75,325.84 194.74,325.06 194.74,324.28C194.74,295.97 211.79,270.64 238.63,253.78C241.53,251.96 244.8,250.66 248.22,249.9C253.3,248.74 258.73,248.74 263.82,249.9C267.23,250.67 270.49,251.97 273.38,253.79C300.2,270.65 317.26,295.97 317.26,324.28Z" style="fill:white;fill-rule:nonzero;stroke:rgb(26,26,26);stroke-width:9.2px;"/>
            <path d="M317.26,324.28C317.26,325.08 317.25,325.86 317.21,326.65C300.13,339.36 278.96,346.88 256.04,346.88L256.01,346.88C233.07,346.88 211.89,339.35 194.79,326.62C194.75,325.84 194.74,325.06 194.74,324.28C194.74,295.97 211.79,270.64 238.63,253.78C241.53,251.96 244.8,250.66 248.22,249.9L248.23,249.91C251.19,256.74 260.87,256.73 263.82,249.9C267.23,250.67 270.49,251.97 273.38,253.79C300.2,270.65 317.26,295.97 317.26,324.28Z" style="fill:white;fill-rule:nonzero;stroke:rgb(26,26,26);stroke-width:9.2px;"/>
            <path d="M358.68,156.416L358.68,200.524L355.229,197.85C345.653,190.442 340.059,179.017 340.059,166.921L340.059,166.097C327.092,166.097 316.597,155.591 316.597,142.635L316.597,140.409C300.485,156.509 278.755,165.708 256,166.085C255.517,166.097 255.046,166.097 254.563,166.097L173.343,166.097C173.343,178.664 167.301,190.465 157.113,197.815L153.368,200.524L153.368,179.866C153.368,128.149 195.297,86.22 247.014,86.22L303.218,86.22C310.603,86.22 316.598,92.215 316.598,99.6L316.598,114.322C339.835,114.322 358.68,133.167 358.68,156.416Z" style="fill:white;fill-rule:nonzero;stroke:rgb(26,26,26);stroke-width:9.2px;"/>
            <path d="M284.45,342.57C284.45,358.27 271.73,371 256.04,371.02L256,371.02C240.29,371.02 227.55,358.28 227.55,342.57C227.55,326.85 240.29,314.12 256,314.12L256.04,314.12C271.73,314.14 284.45,326.86 284.45,342.57Z" style="fill:white;fill-rule:nonzero;stroke:rgb(26,26,26);stroke-width:9.2px;"/>
            <path d="M392.8,463.67L392.8,472.42C382.29,479.07 371.27,484.98 359.8,490.07L359.8,463.67C359.8,451.86 350.19,442.26 338.39,442.26L293.91,442.26C263.91,442.26 239.5,417.85 239.5,387.85L239.5,342.57C239.5,333.46 246.89,326.07 256,326.07C265.11,326.07 272.5,333.46 272.5,342.57L272.5,387.85C272.5,399.66 282.1,409.26 293.91,409.26L338.39,409.26C368.39,409.26 392.8,433.67 392.8,463.67Z" style="fill:white;fill-rule:nonzero;stroke:rgb(26,26,26);stroke-width:9.2px;"/>
            <path d="M221.75,288.64C220.1,289.92 218.16,290.53 216.23,290.53C213.55,290.53 210.89,289.33 209.12,287.05L153.37,215.2L153.37,205.52C153.37,199.94 153.8,194.46 154.69,189.14C154.72,188.89 154.76,188.65 154.8,188.41C154.84,188.19 154.87,187.97 154.92,187.75L160.51,195.05L223.34,276.01C226.39,279.94 225.67,285.59 221.75,288.64Z" style="fill:white;fill-rule:nonzero;stroke:rgb(26,26,26);stroke-width:9.2px;"/>
            <path d="M358.68,205.52L358.68,215.2L302.93,287.05C301.16,289.33 298.5,290.53 295.81,290.53C293.88,290.53 291.94,289.92 290.3,288.64C286.37,285.59 285.66,279.94 288.71,276.01L351.57,195.01L357.12,187.77C357.16,187.98 357.19,188.2 357.23,188.41C357.28,188.65 357.31,188.9 357.35,189.16C358.23,194.48 358.68,199.94 358.68,205.52Z" style="fill:white;fill-rule:nonzero;stroke:rgb(26,26,26);stroke-width:9.2px;"/>
        </g>
    </g>
</svg>
