<?xml version="1.0" encoding="UTF-8" standalone="no"?>
<!DOCTYPE svg PUBLIC "-//W3C//DTD SVG 1.1//EN" "http://www.w3.org/Graphics/SVG/1.1/DTD/svg11.dtd">
<svg width="100%" height="100%" viewBox="0 0 100 115" version="1.1" xmlns="http://www.w3.org/2000/svg" xmlns:xlink="http://www.w3.org/1999/xlink" xml:space="preserve" xmlns:serif="http://www.serif.com/" style="fill-rule:evenodd;clip-rule:evenodd;stroke-linejoin:round;stroke-miterlimit:2;">
    <g transform="matrix(1,0,0,1,-1998.93,-360)">
        <g transform="matrix(0.397961,0,0,0.397961,1190.74,319.168)">
            <g transform="matrix(0.208256,0,0,0.207979,1998.56,88.044)">
                <path d="M1016,326C1087,326 1144,269 1144,198C1144,128 1087,70 1016,70C946,70 888,128 888,198C888,269 946,326 1016,326ZM1016,102C1069,102 1112,145 1112,198C1112,251 1069,294 1016,294C963,294 920,251 920,198C921,145 963,102 1016,102Z" style="fill-rule:nonzero;"/>
            </g>
            <g transform="matrix(0.208256,0,0,0.207979,1998.56,88.044)">
                <path d="M576,1076C568,1091 552,1101 534,1101L234,1101C208,1101 187,1079 187,1053C187,1027 208,1006 234,1006L496,1006C502,1006 508,1003 511,998L586,858C578,847 572,835 568,822L487,974L234,974C191,974 155,1010 155,1053C155,1097 191,1133 234,1133L534,1133C563,1133 590,1117 604,1091L682,947L657,925L576,1076Z" style="fill-rule:nonzero;"/>
            </g>
            <g transform="matrix(0.208256,0,0,0.207979,1998.56,88.044)">
                <path d="M1359,425C1353,405 1339,387 1320,377C1301,368 1280,366 1260,372C1240,378 1224,392 1215,410L1168,498L1121,468L1052,424L975,376L944,356C932,348 917,344 903,344L639,344C610,344 584,360 570,385L469,572C459,589 457,611 463,630C468,651 482,668 501,678C512,684 525,687 538,687C566,687 592,671 606,646L685,501L741,501L605,755C588,786 595,825 621,849L855,1062L842,1366C840,1386 846,1407 860,1422C874,1438 894,1448 915,1448L918,1448C960,1448 994,1416 996,1374L1012,1033C1014,1010 1004,987 987,972L845,840L1017,520C1021,512 1019,503 1011,498C1003,494 994,496 989,504L989,505L811,836C807,843 809,850 814,855L965,995C975,1004 981,1017 980,1031L964,1373C963,1397 943,1416 918,1416L916,1416C904,1416 892,1410 884,1401C876,1392 872,1380 874,1368L888,1056C888,1051 886,1046 882,1043L643,826C627,811 623,788 633,770L782,492C786,485 783,475 775,471C773,469 770,469 768,469L676,469C670,469 665,472 662,477L578,631C570,646 554,655 538,655C530,655 522,653 516,649C505,643 497,633 493,621C490,610 491,598 497,587L598,401C606,386 622,376 639,376L903,376C911,376 920,379 927,383L951,399L1059,467L1166,534C1173,539 1183,537 1188,529C1188,529 1188,528 1189,528L1243,425C1248,414 1258,406 1270,403C1281,399 1294,400 1305,406C1316,412 1325,422 1328,434C1331,446 1330,458 1323,468L1238,631C1232,643 1221,651 1209,654C1196,658 1183,655 1172,648L1032,560L1026,571L1017,588L1155,675C1173,687 1196,691 1217,685C1239,680 1256,665 1266,646L1351,483C1362,466 1364,445 1359,425Z" style="fill-rule:nonzero;"/>
            </g>
        </g>
    </g>
</svg>
