<?xml version="1.0" encoding="UTF-8" standalone="no"?>
<!DOCTYPE svg PUBLIC "-//W3C//DTD SVG 1.1//EN" "http://www.w3.org/Graphics/SVG/1.1/DTD/svg11.dtd">
<svg width="100%" height="100%" viewBox="0 0 222 35" version="1.1" xmlns="http://www.w3.org/2000/svg" xmlns:xlink="http://www.w3.org/1999/xlink" xml:space="preserve" xmlns:serif="http://www.serif.com/" style="fill-rule:evenodd;clip-rule:evenodd;stroke-linejoin:round;stroke-miterlimit:2;">
    <g transform="matrix(1,0,0,1,-3976.31,-33.1073)">
        <g transform="matrix(0.17509,0,0,0.17509,3825.08,-347.283)">
            <g transform="matrix(195.748,0,0,195.748,1008.86,2315.82)">
                <rect x="0.081" y="-0.715" width="0.197" height="0.715" style="fill:rgb(8,28,51);fill-rule:nonzero;"/>
            </g>
            <g transform="matrix(195.748,0,0,195.748,1079.11,2315.82)">
                <path d="M0.108,-0.231C0.137,-0.198 0.165,-0.174 0.194,-0.157C0.222,-0.141 0.25,-0.133 0.278,-0.133C0.304,-0.133 0.325,-0.14 0.342,-0.154C0.359,-0.168 0.367,-0.186 0.367,-0.207C0.367,-0.231 0.36,-0.249 0.345,-0.262C0.331,-0.275 0.298,-0.288 0.247,-0.302C0.177,-0.321 0.128,-0.345 0.099,-0.375C0.07,-0.406 0.055,-0.447 0.055,-0.5C0.055,-0.568 0.078,-0.624 0.124,-0.667C0.17,-0.71 0.229,-0.732 0.302,-0.732C0.341,-0.732 0.378,-0.727 0.414,-0.716C0.449,-0.705 0.483,-0.689 0.514,-0.668L0.453,-0.528C0.431,-0.547 0.408,-0.561 0.385,-0.571C0.362,-0.58 0.339,-0.585 0.316,-0.585C0.292,-0.585 0.273,-0.579 0.259,-0.568C0.244,-0.557 0.237,-0.542 0.237,-0.525C0.237,-0.507 0.243,-0.493 0.256,-0.482C0.269,-0.471 0.294,-0.461 0.331,-0.451L0.339,-0.449C0.419,-0.427 0.471,-0.404 0.496,-0.378C0.513,-0.36 0.526,-0.339 0.535,-0.315C0.543,-0.29 0.548,-0.263 0.548,-0.233C0.548,-0.157 0.523,-0.096 0.473,-0.05C0.423,-0.004 0.357,0.019 0.274,0.019C0.224,0.019 0.179,0.011 0.138,-0.006C0.097,-0.023 0.058,-0.05 0.02,-0.086L0.108,-0.231Z" style="fill:rgb(8,28,51);fill-rule:nonzero;"/>
            </g>
            <g transform="matrix(195.748,0,0,195.748,1192.85,2315.82)">
                <path d="M0.259,-0L0.076,-0L0.076,-0.715L0.28,-0.715C0.36,-0.715 0.416,-0.711 0.448,-0.703C0.48,-0.695 0.507,-0.682 0.53,-0.663C0.556,-0.641 0.576,-0.614 0.59,-0.581C0.604,-0.549 0.611,-0.512 0.611,-0.472C0.611,-0.43 0.604,-0.392 0.59,-0.36C0.577,-0.327 0.556,-0.301 0.53,-0.28C0.51,-0.264 0.486,-0.253 0.458,-0.246C0.431,-0.239 0.387,-0.236 0.327,-0.236L0.259,-0.236L0.259,-0ZM0.259,-0.393L0.296,-0.393C0.343,-0.393 0.375,-0.399 0.394,-0.412C0.413,-0.425 0.422,-0.447 0.422,-0.478C0.422,-0.508 0.413,-0.529 0.395,-0.542C0.376,-0.555 0.344,-0.561 0.298,-0.561L0.259,-0.561L0.259,-0.393Z" style="fill:rgb(8,28,51);fill-rule:nonzero;"/>
            </g>
            <g transform="matrix(195.748,0,0,195.748,1316.91,2315.82)">
                <path d="M0.072,-0.715L0.266,-0.715L0.266,-0.367C0.266,-0.316 0.267,-0.279 0.27,-0.257C0.273,-0.235 0.277,-0.216 0.283,-0.201C0.291,-0.183 0.304,-0.169 0.322,-0.159C0.341,-0.15 0.363,-0.145 0.39,-0.145C0.417,-0.145 0.439,-0.15 0.458,-0.159C0.476,-0.169 0.489,-0.183 0.497,-0.201C0.503,-0.216 0.508,-0.235 0.51,-0.257C0.513,-0.279 0.514,-0.316 0.514,-0.367L0.514,-0.715L0.708,-0.715L0.708,-0.337C0.708,-0.258 0.703,-0.201 0.694,-0.163C0.684,-0.126 0.668,-0.094 0.646,-0.068C0.622,-0.039 0.588,-0.017 0.545,-0.003C0.503,0.012 0.451,0.019 0.39,0.019C0.329,0.019 0.277,0.012 0.235,-0.003C0.192,-0.017 0.159,-0.039 0.134,-0.068C0.112,-0.094 0.096,-0.126 0.086,-0.163C0.077,-0.201 0.072,-0.258 0.072,-0.337L0.072,-0.715Z" style="fill:rgb(8,28,51);fill-rule:nonzero;"/>
            </g>
            <g transform="matrix(274.047,0,0,274.047,1469.55,2315.82)">
                <path d="M0.713,-0.307C0.713,-0.352 0.702,-0.387 0.681,-0.412C0.659,-0.436 0.629,-0.449 0.59,-0.449C0.55,-0.449 0.52,-0.437 0.498,-0.413C0.477,-0.389 0.466,-0.355 0.466,-0.311L0.436,-0.384C0.452,-0.426 0.475,-0.458 0.504,-0.481C0.533,-0.503 0.568,-0.514 0.608,-0.514C0.645,-0.514 0.677,-0.506 0.703,-0.49C0.729,-0.474 0.749,-0.45 0.763,-0.419C0.776,-0.389 0.783,-0.351 0.783,-0.308L0.783,-0L0.713,-0L0.713,-0.307ZM0.078,-0.507L0.148,-0.507L0.148,-0L0.078,-0L0.078,-0.507ZM0.396,-0.307C0.396,-0.352 0.385,-0.387 0.364,-0.412C0.342,-0.436 0.312,-0.449 0.272,-0.449C0.233,-0.449 0.203,-0.438 0.181,-0.415C0.159,-0.393 0.148,-0.361 0.148,-0.321L0.138,-0.418C0.155,-0.452 0.177,-0.477 0.205,-0.492C0.232,-0.507 0.264,-0.514 0.3,-0.514C0.335,-0.514 0.365,-0.506 0.39,-0.49C0.415,-0.474 0.434,-0.45 0.447,-0.419C0.459,-0.389 0.466,-0.351 0.466,-0.308L0.466,-0L0.396,-0L0.396,-0.307Z" style="fill:rgb(242,175,13);fill-rule:nonzero;"/>
            </g>
            <g transform="matrix(274.047,0,0,274.047,1704.26,2315.82)">
                <path d="M0.389,-0.321C0.389,-0.362 0.378,-0.394 0.356,-0.417C0.334,-0.439 0.303,-0.451 0.262,-0.451C0.238,-0.451 0.215,-0.447 0.191,-0.439C0.168,-0.431 0.148,-0.42 0.13,-0.406L0.079,-0.441C0.098,-0.464 0.123,-0.482 0.155,-0.495C0.186,-0.508 0.221,-0.514 0.259,-0.514C0.301,-0.514 0.337,-0.507 0.367,-0.492C0.397,-0.477 0.42,-0.456 0.436,-0.427C0.451,-0.399 0.459,-0.365 0.459,-0.326L0.459,-0L0.389,-0L0.389,-0.321ZM0.24,0.007C0.181,0.007 0.135,-0.006 0.103,-0.034C0.07,-0.061 0.054,-0.1 0.054,-0.149C0.054,-0.197 0.069,-0.234 0.098,-0.26C0.128,-0.287 0.17,-0.3 0.225,-0.3L0.393,-0.3L0.4,-0.234L0.225,-0.234C0.193,-0.234 0.167,-0.227 0.15,-0.212C0.132,-0.197 0.123,-0.176 0.123,-0.149C0.123,-0.121 0.134,-0.099 0.156,-0.083C0.179,-0.067 0.21,-0.059 0.251,-0.059C0.295,-0.059 0.328,-0.063 0.353,-0.072C0.377,-0.081 0.389,-0.093 0.389,-0.109L0.399,-0.043C0.389,-0.033 0.376,-0.024 0.36,-0.016C0.344,-0.008 0.326,-0.002 0.306,0.001C0.286,0.005 0.264,0.007 0.24,0.007Z" style="fill:rgb(242,175,13);fill-rule:nonzero;"/>
            </g>
            <g transform="matrix(274.047,0,0,274.047,1850.11,2315.82)">
                <path d="M0.078,-0.507L0.148,-0.507L0.148,0.206L0.078,0.206L0.078,-0.507ZM0.305,0.007C0.264,0.007 0.23,0.001 0.202,-0.013C0.174,-0.026 0.154,-0.049 0.142,-0.08L0.148,-0.186C0.148,-0.163 0.154,-0.142 0.164,-0.122C0.174,-0.101 0.189,-0.085 0.209,-0.072C0.229,-0.06 0.251,-0.053 0.277,-0.053C0.32,-0.053 0.352,-0.066 0.375,-0.091C0.399,-0.116 0.41,-0.152 0.41,-0.197L0.41,-0.307C0.41,-0.354 0.399,-0.39 0.375,-0.415C0.352,-0.441 0.32,-0.454 0.277,-0.454C0.251,-0.454 0.229,-0.447 0.209,-0.435C0.189,-0.422 0.174,-0.406 0.164,-0.386C0.154,-0.366 0.148,-0.346 0.148,-0.324L0.138,-0.421C0.156,-0.454 0.179,-0.478 0.208,-0.492C0.237,-0.507 0.271,-0.514 0.31,-0.514C0.346,-0.514 0.377,-0.506 0.402,-0.49C0.428,-0.474 0.447,-0.45 0.46,-0.419C0.474,-0.389 0.48,-0.351 0.48,-0.308L0.48,-0.197C0.48,-0.154 0.474,-0.118 0.46,-0.087C0.446,-0.056 0.426,-0.033 0.4,-0.017C0.374,-0.001 0.342,0.007 0.305,0.007Z" style="fill:rgb(242,175,13);fill-rule:nonzero;"/>
            </g>
            <g transform="matrix(274.047,0,0,274.047,1999.18,2315.82)">
                <path d="M0.252,0.007C0.225,0.007 0.199,0.005 0.173,-0.001C0.147,-0.006 0.123,-0.014 0.101,-0.024C0.079,-0.035 0.059,-0.047 0.042,-0.062L0.082,-0.111C0.11,-0.093 0.138,-0.078 0.168,-0.068C0.198,-0.058 0.226,-0.053 0.252,-0.053C0.301,-0.053 0.338,-0.061 0.365,-0.078C0.392,-0.094 0.405,-0.118 0.405,-0.148C0.405,-0.17 0.398,-0.187 0.385,-0.198C0.373,-0.209 0.356,-0.216 0.337,-0.22C0.317,-0.224 0.29,-0.227 0.255,-0.23L0.228,-0.232C0.194,-0.235 0.166,-0.24 0.144,-0.247C0.121,-0.253 0.102,-0.265 0.087,-0.283C0.072,-0.301 0.064,-0.327 0.064,-0.361C0.064,-0.393 0.072,-0.421 0.088,-0.444C0.104,-0.467 0.127,-0.484 0.157,-0.496C0.188,-0.508 0.224,-0.514 0.267,-0.514C0.289,-0.514 0.311,-0.512 0.333,-0.508C0.356,-0.503 0.377,-0.497 0.397,-0.489C0.418,-0.48 0.436,-0.47 0.453,-0.458L0.413,-0.41C0.389,-0.424 0.363,-0.435 0.337,-0.443C0.311,-0.45 0.287,-0.454 0.264,-0.454C0.222,-0.454 0.188,-0.446 0.165,-0.43C0.142,-0.414 0.13,-0.392 0.13,-0.363C0.13,-0.343 0.136,-0.328 0.149,-0.318C0.162,-0.308 0.178,-0.301 0.197,-0.298C0.216,-0.295 0.243,-0.292 0.277,-0.29L0.288,-0.29C0.289,-0.29 0.29,-0.289 0.291,-0.289C0.326,-0.287 0.357,-0.283 0.382,-0.276C0.406,-0.269 0.427,-0.256 0.444,-0.235C0.461,-0.215 0.47,-0.186 0.47,-0.148C0.47,-0.115 0.461,-0.087 0.444,-0.064C0.427,-0.041 0.403,-0.023 0.37,-0.011C0.338,0.001 0.298,0.007 0.252,0.007Z" style="fill:rgb(242,175,13);fill-rule:nonzero;"/>
            </g>
            <g transform="matrix(0.561026,0,0,0.561026,-569.929,1828.16)">
                <g transform="matrix(1,0,0,1,-55.9424,-66.1378)">
                    <circle cx="2735.94" cy="810.607" r="124.594" style="fill:rgb(8,28,51);"/>
                </g>
                <g transform="matrix(-0.24785,0.24785,-0.296926,-0.296926,3503.62,352.002)">
                    <g transform="matrix(0.870512,-2.61315e-17,-1.90388e-17,1,324.956,-6.0021e-15)">
                        <path d="M2696.52,789.997C2696.52,777.181 2682.2,766.775 2664.56,766.775L2354.52,766.775C2336.88,766.775 2322.56,777.181 2322.56,789.997C2322.56,802.814 2336.88,813.22 2354.52,813.22L2664.56,813.22C2682.2,813.22 2696.52,802.814 2696.52,789.997Z" style="fill:white;"/>
                    </g>
                    <g transform="matrix(0.601107,0,0,1,979.779,-197.656)">
                        <path d="M2696.52,789.997C2696.52,777.181 2675.78,766.775 2650.24,766.775L2368.84,766.775C2343.3,766.775 2322.56,777.181 2322.56,789.997C2322.56,802.814 2343.3,813.22 2368.84,813.22L2650.24,813.22C2675.78,813.22 2696.52,802.814 2696.52,789.997Z" style="fill:white;"/>
                    </g>
                    <g transform="matrix(0.605523,-1.22623e-16,3.3906e-16,1,901.691,-131.77)">
                        <path d="M2696.52,789.997C2696.52,777.181 2675.93,766.775 2650.57,766.775L2368.5,766.775C2343.14,766.775 2322.56,777.181 2322.56,789.997C2322.56,802.814 2343.14,813.22 2368.5,813.22L2650.57,813.22C2675.93,813.22 2696.52,802.814 2696.52,789.997Z" style="fill:white;"/>
                    </g>
                    <g transform="matrix(0.46605,-6.87918e-17,2.29864e-18,1,1201.72,65.8852)">
                        <path d="M2696.52,789.997C2696.52,777.181 2669.77,766.775 2636.82,766.775L2382.25,766.775C2349.31,766.775 2322.56,777.181 2322.56,789.997C2322.56,802.814 2349.31,813.22 2382.25,813.22L2636.82,813.22C2669.77,813.22 2696.52,802.814 2696.52,789.997Z" style="fill:white;"/>
                    </g>
                    <g transform="matrix(0.62645,0,0,1,1007.29,-65.8852)">
                        <path d="M2696.52,789.997C2696.52,777.181 2676.62,766.775 2652.11,766.775L2366.97,766.775C2342.46,766.775 2322.56,777.181 2322.56,789.997C2322.56,802.814 2342.46,813.22 2366.97,813.22L2652.11,813.22C2676.62,813.22 2696.52,802.814 2696.52,789.997Z" style="fill:white;"/>
                    </g>
                    <g transform="matrix(0.62645,0,0,1,750.459,-65.8852)">
                        <path d="M2696.52,789.997C2696.52,777.181 2676.62,766.775 2652.11,766.775L2366.97,766.775C2342.46,766.775 2322.56,777.181 2322.56,789.997C2322.56,802.814 2342.46,813.22 2366.97,813.22L2652.11,813.22C2676.62,813.22 2696.52,802.814 2696.52,789.997Z" style="fill:rgb(242,175,13);"/>
                    </g>
                </g>
            </g>
            <g transform="matrix(0.15378,0,0,0.15378,1832.98,2071.5)">
                <g transform="matrix(0.924224,0.924224,-0.929383,0.929383,1801.54,-1343.27)">
                    <g transform="matrix(1,0,0,1,272.87,69.6416)">
                        <circle cx="1496.85" cy="1692.87" r="19.488" style="fill:rgb(128,128,128);"/>
                    </g>
                    <g transform="matrix(1,0,0,1,171.786,-30.6652)">
                        <circle cx="1496.85" cy="1692.87" r="19.488" style="fill:rgb(128,128,128);"/>
                    </g>
                    <g transform="matrix(1,0,0,1,222.328,-30.6652)">
                        <circle cx="1496.85" cy="1692.87" r="19.488" style="fill:rgb(128,128,128);"/>
                    </g>
                    <g transform="matrix(1,0,0,1,272.87,-30.6652)">
                        <circle cx="1496.85" cy="1692.87" r="19.488" style="fill:rgb(128,128,128);"/>
                    </g>
                    <g transform="matrix(1,0,0,1,222.328,19.4882)">
                        <circle cx="1496.85" cy="1692.87" r="19.488" style="fill:rgb(128,128,128);"/>
                    </g>
                    <g transform="matrix(1,0,0,1,272.87,19.4882)">
                        <circle cx="1496.85" cy="1692.87" r="19.488" style="fill:rgb(128,128,128);"/>
                    </g>
                    <g transform="matrix(1.92876,0,0,1,-1573.22,0)">
                        <path d="M1688.12,1662.2L1699.68,1662.2" style="fill:none;"/>
                    </g>
                    <g transform="matrix(1.92876,0,0,1,-1573.22,-2.27374e-13)">
                        <path d="M1688.12,1670.24C1688.12,1670.24 1689.34,1668.54 1691.59,1667.17C1692.31,1666.73 1693.09,1666.31 1693.9,1666.35C1694.74,1666.38 1695.48,1666.92 1696.22,1667.38C1698.4,1668.76 1699.68,1670.24 1699.68,1670.24C1702,1670.24 1703.88,1666.64 1703.88,1662.2C1703.88,1657.77 1702,1654.16 1699.68,1654.16C1699.68,1654.16 1698.4,1655.64 1696.22,1657.02C1695.48,1657.49 1694.74,1658.02 1693.9,1658.06C1693.09,1658.09 1692.31,1657.67 1691.59,1657.23C1689.34,1655.86 1688.12,1654.16 1688.12,1654.16C1685.81,1654.16 1683.93,1657.77 1683.93,1662.2C1683.93,1666.64 1685.81,1670.24 1688.12,1670.24Z" style="fill:rgb(128,128,128);"/>
                    </g>
                    <g transform="matrix(1.92876,0,0,1,-1522.79,50.1534)">
                        <path d="M1688.12,1662.2L1699.68,1662.2" style="fill:none;"/>
                    </g>
                    <g transform="matrix(1.92876,0,0,1,-1522.79,50.1534)">
                        <path d="M1688.12,1670.24C1688.12,1670.24 1689.34,1668.54 1691.59,1667.17C1692.31,1666.73 1693.09,1666.31 1693.9,1666.35C1694.74,1666.38 1695.48,1666.92 1696.22,1667.38C1698.4,1668.76 1699.68,1670.24 1699.68,1670.24C1702,1670.24 1703.88,1666.64 1703.88,1662.2C1703.88,1657.77 1702,1654.16 1699.68,1654.16C1699.68,1654.16 1698.4,1655.64 1696.22,1657.02C1695.48,1657.49 1694.74,1658.02 1693.9,1658.06C1693.09,1658.09 1692.31,1657.67 1691.59,1657.23C1689.34,1655.86 1688.12,1654.16 1688.12,1654.16C1685.81,1654.16 1683.93,1657.77 1683.93,1662.2C1683.93,1666.64 1685.81,1670.24 1688.12,1670.24Z" style="fill:rgb(128,128,128);"/>
                    </g>
                    <g transform="matrix(1.18102e-16,1.92876,-1,6.12323e-17,3431.92,-1529.69)">
                        <path d="M1688.12,1662.2L1699.68,1662.2" style="fill:none;"/>
                    </g>
                    <g transform="matrix(0,1.92876,-1,0,3431.92,-1529.69)">
                        <path d="M1688.12,1670.29C1688.12,1670.29 1689.35,1668.58 1691.59,1667.2C1692.31,1666.76 1693.09,1666.33 1693.9,1666.37C1694.74,1666.41 1695.48,1666.95 1696.22,1667.41C1698.4,1668.8 1699.68,1670.29 1699.68,1670.29C1701.99,1670.29 1703.85,1666.66 1703.85,1662.2C1703.85,1657.74 1701.99,1654.12 1699.68,1654.12C1699.68,1654.12 1698.4,1655.61 1696.22,1656.99C1695.48,1657.46 1694.74,1658 1693.9,1658.04C1693.09,1658.07 1692.31,1657.65 1691.59,1657.21C1689.35,1655.83 1688.12,1654.12 1688.12,1654.12C1685.82,1654.12 1683.95,1657.74 1683.95,1662.2C1683.95,1666.66 1685.82,1670.29 1688.12,1670.29Z" style="fill:rgb(128,128,128);"/>
                    </g>
                </g>
                <g transform="matrix(503.973,0,0,503.973,715.145,1946.53)">
                    <path d="M0.4,-0.105L0.4,-0.017C0.355,-0 0.312,0.008 0.269,0.008C0.199,0.008 0.143,-0.013 0.101,-0.055C0.059,-0.096 0.038,-0.152 0.038,-0.222C0.038,-0.293 0.058,-0.35 0.099,-0.393C0.14,-0.436 0.193,-0.458 0.26,-0.458C0.283,-0.458 0.304,-0.456 0.322,-0.451C0.34,-0.447 0.363,-0.439 0.39,-0.427L0.39,-0.332C0.345,-0.361 0.304,-0.375 0.265,-0.375C0.225,-0.375 0.192,-0.361 0.167,-0.333C0.141,-0.305 0.128,-0.269 0.128,-0.225C0.128,-0.179 0.142,-0.143 0.17,-0.116C0.198,-0.089 0.235,-0.075 0.282,-0.075C0.316,-0.075 0.356,-0.085 0.4,-0.105Z" style="fill:rgb(128,128,128);fill-rule:nonzero;"/>
                </g>
                <g transform="matrix(436.453,-251.986,251.986,436.453,993.532,1992.63)">
                    <path d="M0.446,-0.217L0.13,-0.217C0.132,-0.174 0.147,-0.14 0.173,-0.114C0.2,-0.089 0.234,-0.076 0.276,-0.076C0.334,-0.076 0.389,-0.094 0.438,-0.131L0.438,-0.044C0.411,-0.026 0.384,-0.013 0.357,-0.005C0.33,0.003 0.298,0.007 0.262,0.007C0.213,0.007 0.173,-0.003 0.142,-0.024C0.111,-0.044 0.087,-0.072 0.069,-0.107C0.05,-0.141 0.041,-0.181 0.041,-0.227C0.041,-0.295 0.06,-0.351 0.099,-0.394C0.138,-0.437 0.188,-0.458 0.25,-0.458C0.31,-0.458 0.357,-0.437 0.393,-0.396C0.428,-0.354 0.446,-0.298 0.446,-0.228L0.446,-0.217ZM0.132,-0.27L0.358,-0.27C0.356,-0.306 0.345,-0.333 0.326,-0.352C0.307,-0.371 0.282,-0.381 0.25,-0.381C0.218,-0.381 0.192,-0.371 0.172,-0.352C0.151,-0.333 0.138,-0.306 0.132,-0.27Z" style="fill:rgb(128,128,128);fill-rule:nonzero;"/>
                </g>
                <g transform="matrix(503.973,0,0,503.973,1169.16,1946.53)">
                    <path d="M0,-0.369L0.167,-0.542L0.167,-0.449L0.309,-0.449L0.309,-0.369L0.167,-0.369L0.167,-0.149C0.167,-0.098 0.188,-0.072 0.231,-0.072C0.263,-0.072 0.297,-0.083 0.332,-0.104L0.332,-0.021C0.298,-0.002 0.261,0.008 0.22,0.008C0.18,0.008 0.146,-0.004 0.119,-0.028C0.11,-0.035 0.103,-0.043 0.098,-0.052C0.092,-0.061 0.087,-0.073 0.084,-0.087C0.08,-0.102 0.078,-0.129 0.078,-0.17L0.078,-0.369L0,-0.369Z" style="fill:rgb(128,128,128);fill-rule:nonzero;"/>
                </g>
                <g transform="matrix(503.973,0,0,503.973,1360.74,1946.53)">
                    <path d="M0,-0.369L0.167,-0.542L0.167,-0.449L0.309,-0.449L0.309,-0.369L0.167,-0.369L0.167,-0.149C0.167,-0.098 0.188,-0.072 0.231,-0.072C0.263,-0.072 0.297,-0.083 0.332,-0.104L0.332,-0.021C0.298,-0.002 0.261,0.008 0.22,0.008C0.18,0.008 0.146,-0.004 0.119,-0.028C0.11,-0.035 0.103,-0.043 0.098,-0.052C0.092,-0.061 0.087,-0.073 0.084,-0.087C0.08,-0.102 0.078,-0.129 0.078,-0.17L0.078,-0.369L0,-0.369Z" style="fill:rgb(128,128,128);fill-rule:nonzero;"/>
                </g>
                <g transform="matrix(503.973,0,0,503.973,1538.78,1946.53)">
                    <path d="M0.345,-0.27L0.345,-0.079C0.345,-0.064 0.35,-0.056 0.361,-0.056C0.372,-0.056 0.388,-0.064 0.411,-0.08L0.411,-0.026C0.391,-0.013 0.375,-0.004 0.363,0.001C0.35,0.005 0.338,0.008 0.324,0.008C0.286,0.008 0.264,-0.007 0.257,-0.037C0.219,-0.008 0.179,0.007 0.136,0.007C0.105,0.007 0.079,-0.003 0.058,-0.024C0.037,-0.045 0.027,-0.071 0.027,-0.102C0.027,-0.13 0.037,-0.156 0.057,-0.178C0.078,-0.2 0.107,-0.218 0.144,-0.231L0.258,-0.27L0.258,-0.294C0.258,-0.348 0.231,-0.375 0.177,-0.375C0.128,-0.375 0.081,-0.35 0.035,-0.3L0.035,-0.397C0.07,-0.438 0.119,-0.458 0.184,-0.458C0.233,-0.458 0.271,-0.445 0.301,-0.42C0.311,-0.412 0.319,-0.401 0.327,-0.387C0.335,-0.374 0.34,-0.36 0.342,-0.347C0.344,-0.333 0.345,-0.308 0.345,-0.27ZM0.258,-0.089L0.258,-0.222L0.198,-0.199C0.168,-0.187 0.147,-0.175 0.134,-0.163C0.122,-0.151 0.115,-0.135 0.115,-0.117C0.115,-0.099 0.121,-0.083 0.133,-0.072C0.145,-0.06 0.16,-0.054 0.179,-0.054C0.208,-0.054 0.234,-0.066 0.258,-0.089Z" style="fill:rgb(128,128,128);fill-rule:nonzero;"/>
                </g>
            </g>
        </g>
    </g>
</svg>
