<?xml version="1.0" encoding="UTF-8" standalone="no"?>
<!DOCTYPE svg PUBLIC "-//W3C//DTD SVG 1.1//EN" "http://www.w3.org/Graphics/SVG/1.1/DTD/svg11.dtd">
<svg width="100%" height="100%" viewBox="0 0 1228 1228" version="1.1" xmlns="http://www.w3.org/2000/svg" xmlns:xlink="http://www.w3.org/1999/xlink" xml:space="preserve" xmlns:serif="http://www.serif.com/" style="fill-rule:evenodd;clip-rule:evenodd;stroke-linejoin:round;stroke-miterlimit:2;">
    <g transform="matrix(1,0,0,1,-75.0111,-94.0071)">
        <g transform="matrix(4.92652,0,0,4.92652,-12540.4,-3053.83)">
            <g transform="matrix(0.202983,0,0,0.202983,2550.81,638.957)">
                <path d="M662.647,0C1001.42,0 1276.46,275.041 1276.46,613.814C1276.46,952.587 1001.42,1227.63 662.647,1227.63C323.874,1227.63 48.833,952.587 48.833,613.814C48.833,275.041 323.874,0 662.647,0ZM678.216,989.364C696.964,1008.11 727.407,1008.11 746.156,989.364L952.693,782.826C971.442,764.078 971.442,733.635 952.693,714.887C933.945,696.138 903.502,696.138 884.754,714.887L678.216,921.424C659.467,940.173 659.467,970.616 678.216,989.364ZM368.433,913.637C387.181,932.385 417.624,932.385 436.373,913.637L654.482,695.527C673.231,676.778 673.231,646.336 654.482,627.587C635.734,608.839 605.291,608.839 586.542,627.587L368.433,845.697C349.684,864.445 349.684,894.888 368.433,913.637ZM662.647,812.178C681.395,830.926 711.838,830.926 730.587,812.178L939.141,603.623C957.89,584.875 957.89,554.432 939.141,535.684C920.393,516.935 889.95,516.935 871.201,535.684L662.647,744.238C643.898,762.986 643.898,793.429 662.647,812.178ZM301.619,787.695C320.367,806.444 350.81,806.444 369.558,787.695L699.112,458.142C717.86,439.394 717.86,408.951 699.112,390.202C680.363,371.454 649.92,371.454 631.172,390.202L301.619,719.756C282.87,738.504 282.87,768.947 301.619,787.695ZM682.028,600.041C700.777,618.79 731.22,618.79 749.968,600.041L968.078,381.931C986.826,363.183 986.826,332.74 968.078,313.992C949.329,295.243 918.886,295.243 900.138,313.992L682.028,532.101C663.28,550.85 663.28,581.293 682.028,600.041ZM466.395,430.163C485.144,448.912 515.587,448.912 534.335,430.163L679.203,285.295C697.952,266.547 697.952,236.104 679.203,217.356C660.455,198.607 630.012,198.607 611.263,217.356L466.395,362.224C447.647,380.972 447.647,411.415 466.395,430.163Z" style="fill:white;fill-opacity:0.2;"/>
            </g>
        </g>
    </g>
</svg>
