<?xml version="1.0" encoding="UTF-8" standalone="no"?>
<!DOCTYPE svg PUBLIC "-//W3C//DTD SVG 1.1//EN" "http://www.w3.org/Graphics/SVG/1.1/DTD/svg11.dtd">
<svg width="100%" height="100%" viewBox="0 0 447 111" version="1.1" xmlns="http://www.w3.org/2000/svg" xmlns:xlink="http://www.w3.org/1999/xlink" xml:space="preserve" xmlns:serif="http://www.serif.com/" style="fill-rule:evenodd;clip-rule:evenodd;">
    <g transform="matrix(1,0,0,1,-273.633,-73.3822)">
        <g transform="matrix(0.52247,0,0,0.52247,27.8234,27.5656)">
            <g transform="matrix(1,0,0,1,0,3.67326)">
                <g id="path2" transform="matrix(4.45568,0,0,4.45568,-542.857,-405.997)">
                    <path d="M250.75,111.144C262.987,111.144 272.907,121.28 272.907,133.784C272.907,146.287 262.987,156.423 250.75,156.423C238.513,156.423 228.594,146.287 228.594,133.784C228.594,121.28 238.513,111.144 250.75,111.144Z" style="fill:white;stroke:white;stroke-width:0.57px;"/>
                </g>
                <g id="path4" transform="matrix(4.45568,0,0,4.45568,-542.857,-405.997)">
                    <path d="M270.406,135.33C270.419,135.171 270.425,135.012 270.433,134.852C270.434,134.822 270.435,134.791 270.438,134.759C270.513,133.218 270.414,131.69 270.149,130.205C270.148,130.196 270.147,130.188 270.146,130.179L270.145,130.179C270.093,129.883 270.033,129.589 269.967,129.297L269.97,129.296C269.927,129.098 269.876,128.904 269.826,128.708C269.816,128.673 269.808,128.637 269.8,128.603C269.378,126.978 268.761,125.434 267.979,123.999C267.977,123.995 267.975,123.991 267.973,123.988C267.855,123.772 267.733,123.559 267.609,123.349C267.586,123.312 267.565,123.274 267.542,123.237C267.438,123.063 267.33,122.892 267.218,122.721C267.172,122.647 267.124,122.572 267.077,122.5C266.99,122.369 266.901,122.24 266.811,122.112C266.735,122 266.657,121.891 266.577,121.781C266.514,121.692 266.448,121.606 266.382,121.519C266.273,121.374 266.162,121.228 266.049,121.086C266.011,121.036 265.972,120.989 265.933,120.941C265.789,120.764 265.645,120.589 265.494,120.418C265.484,120.403 265.47,120.39 265.457,120.376C264.216,118.95 262.769,117.696 261.141,116.665C261.116,116.649 261.089,116.634 261.064,116.618C260.866,116.494 260.666,116.371 260.463,116.254C260.334,116.179 260.202,116.11 260.071,116.038C259.97,115.982 259.869,115.924 259.767,115.87C258.212,115.051 256.537,114.44 254.776,114.067C254.641,114.038 254.505,114.011 254.368,113.984C254.282,113.968 254.197,113.95 254.111,113.936C253.864,113.892 253.618,113.854 253.372,113.819C253.357,113.817 253.344,113.816 253.328,113.813C251.283,113.536 249.248,113.593 247.285,113.953C247.247,113.959 247.211,113.967 247.173,113.974C247.067,113.994 246.962,114.014 246.856,114.036C246.749,114.059 246.64,114.082 246.532,114.106C246.5,114.113 246.466,114.121 246.433,114.129C243.937,114.698 241.62,115.752 239.58,117.187C239.558,117.204 239.538,117.218 239.517,117.233C239.421,117.301 239.327,117.368 239.234,117.438C239.176,117.479 239.121,117.521 239.063,117.564C239.006,117.607 238.95,117.651 238.893,117.694C238.801,117.764 238.71,117.836 238.62,117.908C238.599,117.924 238.578,117.941 238.557,117.957C236.609,119.522 234.936,121.469 233.664,123.736C233.647,123.764 233.631,123.795 233.615,123.825C233.56,123.923 233.505,124.022 233.452,124.122C233.401,124.216 233.352,124.312 233.301,124.408C233.284,124.444 233.265,124.479 233.247,124.514C232.271,126.436 231.589,128.537 231.26,130.759C230.928,132.978 230.969,135.192 231.342,137.322C231.35,137.364 231.358,137.407 231.366,137.449C231.384,137.553 231.403,137.657 231.424,137.759C231.445,137.874 231.47,137.987 231.494,138.1C231.501,138.131 231.507,138.161 231.513,138.193C232.072,140.744 233.104,143.115 234.511,145.201C234.524,145.219 234.537,145.239 234.548,145.257C234.618,145.357 234.685,145.456 234.756,145.555C234.794,145.609 234.834,145.664 234.873,145.719C234.917,145.78 234.961,145.842 235.007,145.904C235.073,145.993 235.14,146.083 235.209,146.172C235.226,146.196 235.245,146.222 235.265,146.246C236.794,148.234 238.7,149.942 240.916,151.242C240.947,151.26 240.978,151.279 241.01,151.297C241.103,151.35 241.198,151.405 241.292,151.458C241.388,151.511 241.484,151.564 241.581,151.615C241.613,151.633 241.645,151.65 241.677,151.667C243.442,152.605 245.362,153.277 247.388,153.631C247.396,153.634 247.406,153.634 247.415,153.636C247.651,153.677 247.89,153.714 248.129,153.747C248.218,153.76 248.306,153.77 248.394,153.78C248.542,153.799 248.69,153.815 248.837,153.83C250.347,153.982 251.847,153.953 253.312,153.755C253.317,153.755 253.322,153.755 253.328,153.752C253.583,153.719 253.836,153.68 254.09,153.636C254.208,153.614 254.324,153.59 254.442,153.568C254.579,153.539 254.717,153.515 254.854,153.486C255.05,153.443 255.244,153.394 255.438,153.347C255.494,153.332 255.551,153.32 255.607,153.305C255.855,153.241 256.102,153.172 256.346,153.098C256.349,153.097 256.351,153.096 256.355,153.095C257.91,152.623 259.386,151.961 260.755,151.136C260.767,151.13 260.778,151.122 260.789,151.115C260.991,150.994 261.188,150.867 261.384,150.74C261.428,150.711 261.47,150.684 261.511,150.655C261.674,150.547 261.836,150.436 261.994,150.322C262.071,150.269 262.145,150.215 262.219,150.161C262.344,150.07 262.465,149.977 262.587,149.884C262.695,149.802 262.802,149.719 262.908,149.634C262.994,149.565 263.08,149.495 263.165,149.423C263.3,149.312 263.436,149.197 263.57,149.079C263.624,149.033 263.676,148.987 263.726,148.939C263.889,148.796 264.048,148.65 264.205,148.501C264.229,148.477 264.253,148.453 264.278,148.43C264.457,148.258 264.633,148.082 264.805,147.903C264.809,147.899 264.812,147.894 264.816,147.89C265.563,147.116 266.249,146.277 266.868,145.376C266.874,145.37 266.879,145.362 266.883,145.354C267.029,145.144 267.17,144.931 267.307,144.714C267.333,144.671 267.358,144.631 267.383,144.587C267.472,144.446 267.563,144.306 267.647,144.162L267.641,144.161C267.794,143.903 267.941,143.642 268.083,143.377L268.085,143.378C268.093,143.36 268.102,143.34 268.111,143.323C268.551,142.489 268.933,141.618 269.257,140.719C269.26,140.709 269.263,140.698 269.266,140.689C269.373,140.393 269.47,140.094 269.563,139.792C269.566,139.784 269.569,139.773 269.573,139.765C269.575,139.755 269.578,139.745 269.581,139.735C269.66,139.475 269.733,139.21 269.803,138.946C269.812,138.909 269.822,138.872 269.831,138.836C269.853,138.746 269.88,138.658 269.9,138.569L269.893,138.568C269.963,138.273 270.028,137.981 270.085,137.686L270.091,137.686C270.125,137.506 270.156,137.327 270.185,137.147C270.191,137.107 270.197,137.068 270.205,137.026C270.239,136.81 270.27,136.593 270.297,136.376C270.304,136.326 270.311,136.276 270.319,136.227L270.318,136.226C270.352,135.929 270.381,135.63 270.403,135.33L270.406,135.33Z" style="fill:rgb(0,27,53);"/>
                </g>
                <g id="path6" transform="matrix(4.45568,0,0,4.45568,-542.857,-405.997)">
                    <path d="M250.751,155.86C238.817,155.86 229.143,145.977 229.143,133.783C229.143,121.59 238.817,111.706 250.751,111.706C262.683,111.706 272.356,121.59 272.356,133.783C272.357,145.976 262.683,155.86 250.751,155.86ZM250.751,110.234C238.022,110.234 227.703,120.777 227.703,133.783C227.703,146.789 238.022,157.333 250.751,157.333C263.478,157.333 273.797,146.789 273.797,133.783C273.797,120.777 263.478,110.234 250.751,110.234Z" style="fill:rgb(0,181,189);"/>
                </g>
                <g id="path8" transform="matrix(4.45568,0,0,4.45568,-542.857,-405.997)">
                    <path d="M238.075,118.359L239.733,118.359L239.733,133.578L242.924,133.578L242.924,118.359L245.052,118.359L245.052,115.098L243.382,115.098C241.44,115.897 239.654,117.005 238.075,118.359Z" style="fill:white;"/>
                </g>
                <g id="path10" transform="matrix(4.45568,0,0,4.45568,-542.857,-405.997)">
                    <path d="M262.176,130.179L270.146,130.179C270.095,129.883 270.034,129.588 269.97,129.297L262.176,129.296L262.176,117.37C261.148,116.621 260.046,115.97 258.884,115.432L258.884,130.201L257.787,130.201L257.787,114.965C257.353,114.795 256.912,114.641 256.463,114.503L254.494,114.503L254.494,133.565L262.176,133.565L262.176,130.179Z" style="fill:white;"/>
                </g>
                <g id="path12" transform="matrix(4.45568,0,0,4.45568,-542.857,-405.997)">
                    <path d="M236.937,145.535L241.326,145.535L241.326,150.02L240.229,150.02L240.229,146.656L236.936,146.656L236.936,148.15C239.078,150.3 241.698,151.954 244.619,152.93L244.619,142.17L240.229,142.17L240.229,137.685L241.326,137.685L241.326,141.049L244.619,141.049L244.619,134.321L236.937,134.321L236.937,145.535Z" style="fill:white;"/>
                </g>
                <g id="path14" transform="matrix(4.45568,0,0,4.45568,-542.857,-405.997)">
                    <path d="M250.105,150.02L249.008,150.02L249.008,134.321L245.715,134.321L245.715,153.259C245.876,153.304 246.036,153.344 246.198,153.384L253.397,153.383L253.397,134.321L250.105,134.321L250.105,150.02Z" style="fill:white;"/>
                </g>
                <g id="path16" transform="matrix(4.45568,0,0,4.45568,-542.857,-405.997)">
                    <path d="M249.007,117.868L250.105,117.868L250.105,122.352L249.007,122.352L249.007,117.868ZM249.007,125.716L250.105,125.716L250.105,133.565L253.397,133.565L253.397,124.594L252.016,124.594L252.016,123.474L253.397,123.474L253.397,114.503L245.715,114.503L245.715,133.565L249.007,133.565L249.007,125.716Z" style="fill:white;"/>
                </g>
                <g id="path18" transform="matrix(4.45568,0,0,4.45568,-542.857,-405.997)">
                    <path d="M258.884,142.17L257.787,142.17L257.787,137.685L258.884,137.685L258.884,142.17ZM262.176,134.321L254.494,134.321L254.494,153.383L255.303,153.383C256.154,153.179 256.983,152.915 257.787,152.602L257.787,145.535L258.884,145.535L258.884,152.135C260.046,151.597 261.147,150.945 262.176,150.198L262.176,144.413L260.795,144.413L260.795,143.291L262.176,143.291L262.176,138.568L269.899,138.568C269.97,138.276 270.033,137.982 270.091,137.685L262.176,137.685L262.176,134.321Z" style="fill:white;"/>
                </g>
            </g>
            <g transform="matrix(2.54754,0,0,2.54754,-449.443,-731.147)">
                <g id="path20" transform="matrix(4.45568,0,0,4.45568,-542.857,-405.997)">
                    <path d="M228.039,165.599L228.039,181.847L225.621,181.847L225.621,165.599L223.303,165.599L223.303,163.359L230.359,163.359L230.359,165.599L228.039,165.599Z" style="fill:rgb(0,27,53);"/>
                </g>
                <g id="path22" transform="matrix(4.45568,0,0,4.45568,-542.857,-405.997)">
                    <path d="M234.163,172.268L235.751,172.268C236.473,172.268 236.834,171.822 236.834,170.929L236.834,166.938C236.834,166.046 236.473,165.599 235.751,165.599L234.163,165.599L234.163,172.268ZM231.744,163.359L236.481,163.359C238.33,163.359 239.255,164.415 239.255,166.526L239.255,171.083C239.255,172.697 238.776,173.719 237.817,174.148L239.505,181.847L237.213,181.847L235.625,174.379L234.163,174.379L234.163,181.847L231.744,181.847L231.744,163.359Z" style="fill:rgb(0,27,53);"/>
                </g>
                <g id="path24" transform="matrix(4.45568,0,0,4.45568,-542.857,-405.997)">
                    <path d="M248.881,163.359L248.881,178.345C248.881,180.68 247.906,181.847 245.956,181.847L243.916,181.847C241.985,181.847 241.018,180.671 241.018,178.319L241.018,163.359L243.436,163.359L243.436,178.397C243.436,179.204 243.79,179.607 244.496,179.607L245.478,179.607C246.133,179.607 246.461,179.204 246.461,178.397L246.461,163.359L248.881,163.359Z" style="fill:rgb(0,27,53);"/>
                </g>
                <g id="path26" transform="matrix(4.45568,0,0,4.45568,-542.857,-405.997)">
                    <path d="M255.785,168.328L255.785,166.706C255.785,165.968 255.433,165.599 254.726,165.599L254.35,165.599C253.659,165.599 253.315,165.969 253.315,166.706L253.315,169.77C253.315,170.114 253.381,170.345 253.517,170.466C253.65,170.586 253.87,170.741 254.173,170.929L256.465,172.191C256.97,172.483 257.325,172.71 257.535,172.873C257.746,173.036 257.91,173.234 258.027,173.466C258.145,173.697 258.204,174.139 258.204,174.792L258.204,178.731C258.204,180.809 257.229,181.847 255.282,181.847L253.794,181.847C251.862,181.847 250.897,180.714 250.897,178.448L250.897,177.521L253.315,177.521L253.315,178.525C253.315,179.246 253.676,179.607 254.398,179.607L254.827,179.607C255.466,179.607 255.785,179.246 255.785,178.525L255.785,175.384C255.785,175.041 255.718,174.809 255.584,174.689C255.449,174.568 255.231,174.414 254.928,174.225L252.635,172.912C252.131,172.637 251.765,172.406 251.539,172.217C251.312,172.028 251.148,171.783 251.048,171.483C250.946,171.183 250.897,170.792 250.897,170.312L250.897,166.526C250.897,164.415 251.862,163.359 253.794,163.359L255.306,163.359C257.239,163.359 258.204,164.415 258.204,166.526L258.204,168.328L255.785,168.328Z" style="fill:rgb(0,27,53);"/>
                </g>
                <g id="path28" transform="matrix(4.45568,0,0,4.45568,-542.857,-405.997)">
                    <path d="M268.082,163.359L268.082,178.345C268.082,180.68 267.107,181.847 265.159,181.847L263.117,181.847C261.186,181.847 260.219,180.671 260.219,178.319L260.219,163.359L262.639,163.359L262.639,178.397C262.639,179.204 262.993,179.607 263.698,179.607L264.68,179.607C265.336,179.607 265.662,179.204 265.662,178.397L265.663,163.359L268.082,163.359Z" style="fill:rgb(0,27,53);"/>
                </g>
                <g id="path30" transform="matrix(4.45568,0,0,4.45568,-542.857,-405.997)">
                    <path d="M272.77,172.268L274.356,172.268C275.079,172.268 275.441,171.822 275.441,170.929L275.441,166.938C275.441,166.046 275.078,165.599 274.356,165.599L272.77,165.599L272.77,172.268ZM270.35,163.359L275.087,163.359C276.936,163.359 277.86,164.415 277.86,166.526L277.86,171.083C277.86,172.697 277.381,173.719 276.424,174.148L278.112,181.847L275.82,181.847L274.232,174.379L272.77,174.379L272.77,181.847L270.35,181.847L270.35,163.359Z" style="fill:rgb(0,27,53);"/>
                </g>
            </g>
        </g>
    </g>
</svg>
